<mxfile host="app.diagrams.net" modified="2024-07-02T10:59:51.805Z" agent="Mozilla/5.0 (Windows NT 10.0; Win64; x64) AppleWebKit/537.36 (KHTML, like Gecko) Chrome/126.0.0.0 Safari/537.36" etag="04AwseTpARxf-YZPqREc" version="24.6.4" type="device">
  <diagram name="Страница — 1" id="rr5RCUjF8rNWnvtVm8tM">
    <mxGraphModel dx="1050" dy="562" grid="1" gridSize="10" guides="1" tooltips="1" connect="1" arrows="1" fold="1" page="1" pageScale="1" pageWidth="827" pageHeight="1169" math="0" shadow="0">
      <root>
        <mxCell id="0" />
        <mxCell id="1" parent="0" />
        <mxCell id="vNJtCYYpdefFr2aL_kDl-2" style="edgeStyle=orthogonalEdgeStyle;rounded=0;orthogonalLoop=1;jettySize=auto;html=1;exitX=0.5;exitY=1;exitDx=0;exitDy=0;" parent="1" edge="1">
          <mxGeometry relative="1" as="geometry">
            <mxPoint x="140" y="120" as="targetPoint" />
            <mxPoint x="140" y="80" as="sourcePoint" />
          </mxGeometry>
        </mxCell>
        <mxCell id="vNJtCYYpdefFr2aL_kDl-1" value="&lt;font style=&quot;vertical-align: inherit;&quot;&gt;&lt;font style=&quot;vertical-align: inherit; font-size: 18px;&quot;&gt;start&lt;/font&gt;&lt;/font&gt;" style="ellipse;whiteSpace=wrap;html=1;" parent="1" vertex="1">
          <mxGeometry x="80" width="120" height="80" as="geometry" />
        </mxCell>
        <mxCell id="I0rxd6nHqhTmoSUv3-NU-6" value="" style="edgeStyle=orthogonalEdgeStyle;rounded=0;orthogonalLoop=1;jettySize=auto;html=1;" edge="1" parent="1" source="vNJtCYYpdefFr2aL_kDl-3" target="I0rxd6nHqhTmoSUv3-NU-4">
          <mxGeometry relative="1" as="geometry" />
        </mxCell>
        <mxCell id="vNJtCYYpdefFr2aL_kDl-3" value="int line = введите количество строк&lt;div&gt;string[] origArray = введите строки&lt;/div&gt;" style="shape=parallelogram;perimeter=parallelogramPerimeter;whiteSpace=wrap;html=1;fixedSize=1;" parent="1" vertex="1">
          <mxGeometry x="20" y="120" width="240" height="110" as="geometry" />
        </mxCell>
        <mxCell id="I0rxd6nHqhTmoSUv3-NU-11" value="" style="edgeStyle=orthogonalEdgeStyle;rounded=0;orthogonalLoop=1;jettySize=auto;html=1;" edge="1" parent="1" source="I0rxd6nHqhTmoSUv3-NU-3" target="I0rxd6nHqhTmoSUv3-NU-10">
          <mxGeometry relative="1" as="geometry" />
        </mxCell>
        <mxCell id="I0rxd6nHqhTmoSUv3-NU-44" value="" style="edgeStyle=orthogonalEdgeStyle;rounded=0;orthogonalLoop=1;jettySize=auto;html=1;" edge="1" parent="1" source="I0rxd6nHqhTmoSUv3-NU-3" target="I0rxd6nHqhTmoSUv3-NU-19">
          <mxGeometry relative="1" as="geometry" />
        </mxCell>
        <mxCell id="I0rxd6nHqhTmoSUv3-NU-3" value="index &amp;lt;= origArray.Lenght" style="rhombus;whiteSpace=wrap;html=1;" vertex="1" parent="1">
          <mxGeometry x="10" y="390" width="260" height="80" as="geometry" />
        </mxCell>
        <mxCell id="I0rxd6nHqhTmoSUv3-NU-7" value="" style="edgeStyle=orthogonalEdgeStyle;rounded=0;orthogonalLoop=1;jettySize=auto;html=1;" edge="1" parent="1" source="I0rxd6nHqhTmoSUv3-NU-4" target="I0rxd6nHqhTmoSUv3-NU-3">
          <mxGeometry relative="1" as="geometry" />
        </mxCell>
        <mxCell id="I0rxd6nHqhTmoSUv3-NU-4" value="&lt;div&gt;поиск длины нового массива&lt;/div&gt;int newLine = 0&lt;div&gt;int index = 0&lt;br&gt;&lt;div&gt;&lt;br&gt;&lt;/div&gt;&lt;/div&gt;" style="rounded=0;whiteSpace=wrap;html=1;" vertex="1" parent="1">
          <mxGeometry x="80" y="270" width="120" height="80" as="geometry" />
        </mxCell>
        <mxCell id="I0rxd6nHqhTmoSUv3-NU-13" value="" style="edgeStyle=orthogonalEdgeStyle;rounded=0;orthogonalLoop=1;jettySize=auto;html=1;" edge="1" parent="1" source="I0rxd6nHqhTmoSUv3-NU-10" target="I0rxd6nHqhTmoSUv3-NU-12">
          <mxGeometry relative="1" as="geometry" />
        </mxCell>
        <mxCell id="I0rxd6nHqhTmoSUv3-NU-14" style="edgeStyle=orthogonalEdgeStyle;rounded=0;orthogonalLoop=1;jettySize=auto;html=1;exitX=1;exitY=0.5;exitDx=0;exitDy=0;entryX=1;entryY=0.5;entryDx=0;entryDy=0;" edge="1" parent="1" source="I0rxd6nHqhTmoSUv3-NU-10" target="I0rxd6nHqhTmoSUv3-NU-15">
          <mxGeometry relative="1" as="geometry">
            <mxPoint x="300" y="720" as="targetPoint" />
          </mxGeometry>
        </mxCell>
        <mxCell id="I0rxd6nHqhTmoSUv3-NU-10" value="origArray[ndex].Lenght &amp;lt;= 3" style="rhombus;whiteSpace=wrap;html=1;" vertex="1" parent="1">
          <mxGeometry x="50" y="490" width="180" height="80" as="geometry" />
        </mxCell>
        <mxCell id="I0rxd6nHqhTmoSUv3-NU-16" value="" style="edgeStyle=orthogonalEdgeStyle;rounded=0;orthogonalLoop=1;jettySize=auto;html=1;" edge="1" parent="1" source="I0rxd6nHqhTmoSUv3-NU-12" target="I0rxd6nHqhTmoSUv3-NU-15">
          <mxGeometry relative="1" as="geometry" />
        </mxCell>
        <mxCell id="I0rxd6nHqhTmoSUv3-NU-12" value="newLine = newLine + 1" style="whiteSpace=wrap;html=1;" vertex="1" parent="1">
          <mxGeometry x="70" y="610" width="140" height="50" as="geometry" />
        </mxCell>
        <mxCell id="I0rxd6nHqhTmoSUv3-NU-17" style="edgeStyle=orthogonalEdgeStyle;rounded=0;orthogonalLoop=1;jettySize=auto;html=1;entryX=0;entryY=0.5;entryDx=0;entryDy=0;" edge="1" parent="1" source="I0rxd6nHqhTmoSUv3-NU-15" target="I0rxd6nHqhTmoSUv3-NU-10">
          <mxGeometry relative="1" as="geometry">
            <Array as="points">
              <mxPoint x="30" y="715" />
              <mxPoint x="30" y="530" />
            </Array>
          </mxGeometry>
        </mxCell>
        <mxCell id="I0rxd6nHqhTmoSUv3-NU-15" value="index = index +1" style="whiteSpace=wrap;html=1;" vertex="1" parent="1">
          <mxGeometry x="70" y="690" width="140" height="50" as="geometry" />
        </mxCell>
        <mxCell id="I0rxd6nHqhTmoSUv3-NU-20" style="edgeStyle=orthogonalEdgeStyle;rounded=0;orthogonalLoop=1;jettySize=auto;html=1;entryX=0.5;entryY=0;entryDx=0;entryDy=0;" edge="1" parent="1" source="I0rxd6nHqhTmoSUv3-NU-19" target="I0rxd6nHqhTmoSUv3-NU-21">
          <mxGeometry relative="1" as="geometry">
            <mxPoint x="500" y="430" as="targetPoint" />
          </mxGeometry>
        </mxCell>
        <mxCell id="I0rxd6nHqhTmoSUv3-NU-19" value="составление нового массива&lt;div&gt;string[] newArray = new string[newLine]&lt;/div&gt;&lt;div&gt;index = 0&lt;/div&gt;&lt;div&gt;newIndex = 0&lt;/div&gt;" style="rounded=0;whiteSpace=wrap;html=1;" vertex="1" parent="1">
          <mxGeometry x="300.5" y="385" width="130" height="90" as="geometry" />
        </mxCell>
        <mxCell id="I0rxd6nHqhTmoSUv3-NU-36" value="" style="edgeStyle=orthogonalEdgeStyle;rounded=0;orthogonalLoop=1;jettySize=auto;html=1;" edge="1" parent="1" source="I0rxd6nHqhTmoSUv3-NU-21">
          <mxGeometry relative="1" as="geometry">
            <mxPoint x="640" y="500" as="targetPoint" />
          </mxGeometry>
        </mxCell>
        <mxCell id="I0rxd6nHqhTmoSUv3-NU-21" value="index &amp;lt;= origArray.Length" style="rhombus;whiteSpace=wrap;html=1;" vertex="1" parent="1">
          <mxGeometry x="437" y="460" width="140" height="80" as="geometry" />
        </mxCell>
        <mxCell id="I0rxd6nHqhTmoSUv3-NU-25" value="" style="edgeStyle=orthogonalEdgeStyle;rounded=0;orthogonalLoop=1;jettySize=auto;html=1;" edge="1" parent="1" target="I0rxd6nHqhTmoSUv3-NU-24">
          <mxGeometry relative="1" as="geometry">
            <mxPoint x="507" y="540" as="sourcePoint" />
          </mxGeometry>
        </mxCell>
        <mxCell id="I0rxd6nHqhTmoSUv3-NU-27" value="" style="edgeStyle=orthogonalEdgeStyle;rounded=0;orthogonalLoop=1;jettySize=auto;html=1;" edge="1" parent="1" source="I0rxd6nHqhTmoSUv3-NU-24" target="I0rxd6nHqhTmoSUv3-NU-26">
          <mxGeometry relative="1" as="geometry" />
        </mxCell>
        <mxCell id="I0rxd6nHqhTmoSUv3-NU-33" style="edgeStyle=orthogonalEdgeStyle;rounded=0;orthogonalLoop=1;jettySize=auto;html=1;entryX=1;entryY=0.5;entryDx=0;entryDy=0;" edge="1" parent="1" source="I0rxd6nHqhTmoSUv3-NU-24" target="I0rxd6nHqhTmoSUv3-NU-31">
          <mxGeometry relative="1" as="geometry">
            <Array as="points">
              <mxPoint x="604" y="610" />
              <mxPoint x="604" y="870" />
            </Array>
          </mxGeometry>
        </mxCell>
        <mxCell id="I0rxd6nHqhTmoSUv3-NU-24" value="origArray[index].Lenght &amp;lt;= 3" style="rhombus;whiteSpace=wrap;html=1;" vertex="1" parent="1">
          <mxGeometry x="415.25" y="570" width="183.5" height="80" as="geometry" />
        </mxCell>
        <mxCell id="I0rxd6nHqhTmoSUv3-NU-30" value="" style="edgeStyle=orthogonalEdgeStyle;rounded=0;orthogonalLoop=1;jettySize=auto;html=1;" edge="1" parent="1" source="I0rxd6nHqhTmoSUv3-NU-26" target="I0rxd6nHqhTmoSUv3-NU-29">
          <mxGeometry relative="1" as="geometry" />
        </mxCell>
        <mxCell id="I0rxd6nHqhTmoSUv3-NU-26" value="newArray[newIndex] = origArray[index]" style="whiteSpace=wrap;html=1;" vertex="1" parent="1">
          <mxGeometry x="447" y="680" width="120" height="60" as="geometry" />
        </mxCell>
        <mxCell id="I0rxd6nHqhTmoSUv3-NU-32" value="" style="edgeStyle=orthogonalEdgeStyle;rounded=0;orthogonalLoop=1;jettySize=auto;html=1;" edge="1" parent="1" source="I0rxd6nHqhTmoSUv3-NU-29" target="I0rxd6nHqhTmoSUv3-NU-31">
          <mxGeometry relative="1" as="geometry" />
        </mxCell>
        <mxCell id="I0rxd6nHqhTmoSUv3-NU-29" value="newIndex = newIndex + 1" style="whiteSpace=wrap;html=1;" vertex="1" parent="1">
          <mxGeometry x="430.5" y="760" width="153" height="60" as="geometry" />
        </mxCell>
        <mxCell id="I0rxd6nHqhTmoSUv3-NU-34" style="edgeStyle=orthogonalEdgeStyle;rounded=0;orthogonalLoop=1;jettySize=auto;html=1;entryX=0;entryY=0.5;entryDx=0;entryDy=0;" edge="1" parent="1" source="I0rxd6nHqhTmoSUv3-NU-31" target="I0rxd6nHqhTmoSUv3-NU-21">
          <mxGeometry relative="1" as="geometry">
            <mxPoint x="430" y="610" as="targetPoint" />
            <Array as="points">
              <mxPoint x="400" y="870" />
              <mxPoint x="400" y="500" />
            </Array>
          </mxGeometry>
        </mxCell>
        <mxCell id="I0rxd6nHqhTmoSUv3-NU-31" value="index = index + 1" style="whiteSpace=wrap;html=1;" vertex="1" parent="1">
          <mxGeometry x="430.5" y="840" width="153" height="60" as="geometry" />
        </mxCell>
        <mxCell id="I0rxd6nHqhTmoSUv3-NU-39" value="" style="edgeStyle=orthogonalEdgeStyle;rounded=0;orthogonalLoop=1;jettySize=auto;html=1;" edge="1" parent="1" source="I0rxd6nHqhTmoSUv3-NU-37" target="I0rxd6nHqhTmoSUv3-NU-38">
          <mxGeometry relative="1" as="geometry" />
        </mxCell>
        <mxCell id="I0rxd6nHqhTmoSUv3-NU-37" value="вывод нового массива string[] newArray" style="shape=document;whiteSpace=wrap;html=1;boundedLbl=1;" vertex="1" parent="1">
          <mxGeometry x="640" y="470" width="120" height="80" as="geometry" />
        </mxCell>
        <mxCell id="I0rxd6nHqhTmoSUv3-NU-38" value="&lt;font style=&quot;font-size: 18px;&quot;&gt;finish&lt;/font&gt;" style="ellipse;whiteSpace=wrap;html=1;" vertex="1" parent="1">
          <mxGeometry x="660" y="610" width="80" height="80" as="geometry" />
        </mxCell>
        <mxCell id="I0rxd6nHqhTmoSUv3-NU-41" value="&lt;font style=&quot;font-size: 14px;&quot;&gt;yes&lt;/font&gt;" style="text;html=1;align=center;verticalAlign=middle;resizable=0;points=[];autosize=1;strokeColor=none;fillColor=none;" vertex="1" parent="1">
          <mxGeometry x="160" y="460" width="50" height="30" as="geometry" />
        </mxCell>
        <mxCell id="I0rxd6nHqhTmoSUv3-NU-42" value="&lt;font style=&quot;font-size: 14px;&quot;&gt;yes&lt;/font&gt;" style="text;html=1;align=center;verticalAlign=middle;resizable=0;points=[];autosize=1;strokeColor=none;fillColor=none;" vertex="1" parent="1">
          <mxGeometry x="510" y="540" width="50" height="30" as="geometry" />
        </mxCell>
        <mxCell id="I0rxd6nHqhTmoSUv3-NU-43" value="&lt;font style=&quot;font-size: 14px;&quot;&gt;yes&lt;/font&gt;" style="text;html=1;align=center;verticalAlign=middle;resizable=0;points=[];autosize=1;strokeColor=none;fillColor=none;" vertex="1" parent="1">
          <mxGeometry x="510" y="650" width="50" height="30" as="geometry" />
        </mxCell>
        <mxCell id="I0rxd6nHqhTmoSUv3-NU-45" value="&lt;font style=&quot;font-size: 14px;&quot;&gt;yes&lt;/font&gt;" style="text;html=1;align=center;verticalAlign=middle;resizable=0;points=[];autosize=1;strokeColor=none;fillColor=none;" vertex="1" parent="1">
          <mxGeometry x="140" y="570" width="50" height="30" as="geometry" />
        </mxCell>
        <mxCell id="I0rxd6nHqhTmoSUv3-NU-49" value="&lt;font style=&quot;font-size: 14px;&quot;&gt;no&lt;/font&gt;" style="text;html=1;align=center;verticalAlign=middle;resizable=0;points=[];autosize=1;strokeColor=none;fillColor=none;" vertex="1" parent="1">
          <mxGeometry x="567" y="470" width="40" height="30" as="geometry" />
        </mxCell>
        <mxCell id="I0rxd6nHqhTmoSUv3-NU-50" value="&lt;font style=&quot;font-size: 14px;&quot;&gt;no&lt;/font&gt;" style="text;html=1;align=center;verticalAlign=middle;resizable=0;points=[];autosize=1;strokeColor=none;fillColor=none;" vertex="1" parent="1">
          <mxGeometry x="250" y="400" width="40" height="30" as="geometry" />
        </mxCell>
        <mxCell id="I0rxd6nHqhTmoSUv3-NU-51" value="&lt;font style=&quot;font-size: 14px;&quot;&gt;no&lt;/font&gt;" style="text;html=1;align=center;verticalAlign=middle;resizable=0;points=[];autosize=1;strokeColor=none;fillColor=none;" vertex="1" parent="1">
          <mxGeometry x="567" y="580" width="40" height="30" as="geometry" />
        </mxCell>
      </root>
    </mxGraphModel>
  </diagram>
</mxfile>
